<?xml version="1.0" encoding="UTF-8" standalone="no"?>
<!-- Created with Inkscape (http://www.inkscape.org/) -->

<svg
   width="50mm"
   height="50mm"
   viewBox="0 0 50 50"
   version="1.1"
   id="svg5"
   xml:space="preserve"
   inkscape:version="1.2.2 (732a01da63, 2022-12-09, custom)"
   sodipodi:docname="makatawi_logo_gray.svg"
   xmlns:inkscape="http://www.inkscape.org/namespaces/inkscape"
   xmlns:sodipodi="http://sodipodi.sourceforge.net/DTD/sodipodi-0.dtd"
   xmlns="http://www.w3.org/2000/svg"
   xmlns:svg="http://www.w3.org/2000/svg"><sodipodi:namedview
     id="namedview7"
     pagecolor="#505050"
     bordercolor="#eeeeee"
     borderopacity="1"
     inkscape:showpageshadow="0"
     inkscape:pageopacity="0"
     inkscape:pagecheckerboard="0"
     inkscape:deskcolor="#505050"
     inkscape:document-units="mm"
     showgrid="false"
     inkscape:zoom="5.1754899"
     inkscape:cx="-51.975756"
     inkscape:cy="122.01743"
     inkscape:window-width="3840"
     inkscape:window-height="2096"
     inkscape:window-x="0"
     inkscape:window-y="27"
     inkscape:window-maximized="1"
     inkscape:current-layer="g86030" /><defs
     id="defs2" /><g
     inkscape:label="Layer 1"
     inkscape:groupmode="layer"
     id="layer1"><g
       id="g86030"
       transform="translate(-34.545272,114.51505)"><path
         style="fill:#434343;fill-opacity:1;stroke-width:0.264583"
         d="m 54.784645,-66.021098 c -21.25373,-4.49289 -26.413911,-32.388998 -8.119025,-43.891722 5.866334,-3.68839 14.356103,-4.80151 20.157566,-2.6429 28.743542,10.69488 17.837904,52.850292 -12.038541,46.534622 z m 7.82276,-1.617636 c 2.86598,-0.507857 7.638108,-2.444872 8.741376,-3.548139 0.223848,-0.223848 0.494678,-0.406996 0.601847,-0.406996 0.365377,0 3.384532,-3.038663 4.469043,-4.497916 7.19514,-9.681356 4.728385,-24.049955 -5.279988,-30.755385 -17.29176,-11.58516 -38.781313,4.75794 -32.479508,24.701117 3.127062,9.896142 13.727949,16.318196 23.94723,14.507319 z m -13.908177,-7.846158 c -3.111249,-1.137335 -5.268008,-12.111038 -3.1812,-16.186119 0.120565,-0.235436 0.374521,-0.963848 0.564348,-1.618691 1.037448,-3.578874 6.35726,-9.260418 8.670828,-9.260418 0.112635,0 0.969459,-0.3191 1.904053,-0.70911 10.715834,-4.47177 17.820163,4.043818 14.27159,17.1066 -0.348168,1.281652 -1.062953,0.985258 -1.062953,-0.440767 0,-1.556684 -1.486767,-2.02528 -2.09827,-0.661329 -0.208161,0.464304 -0.488558,0.84419 -0.623102,0.84419 -0.232182,0 -0.200334,-0.461896 0.216059,-3.133554 0.156192,-1.002152 0.120293,-1.137557 -0.280582,-1.058334 -0.583219,0.115259 -1.447438,1.707289 -1.447438,2.666407 0,0.402452 -0.109604,0.731731 -0.243559,0.731731 -0.314926,0 -0.643782,-1.486595 -0.411867,-1.861844 0.09764,-0.157991 0.230262,-0.666911 0.294706,-1.130935 0.06444,-0.464023 0.251524,-1.11139 0.415732,-1.438593 0.361326,-0.719975 0.08647,-1.078329 -0.530722,-0.691956 -0.563769,0.352927 -1.814603,2.772672 -2.203889,4.263433 -0.325443,1.246274 -0.625586,1.432835 -0.851337,0.529166 -0.171304,-0.685726 0.109244,-2.012864 0.727107,-3.439583 0.236323,-0.545703 0.353973,-0.992188 0.261443,-0.992188 -0.09253,0 -0.02127,-0.177077 0.158339,-0.393505 0.179621,-0.216428 0.250212,-0.592521 0.156872,-0.835762 -0.390094,-1.016564 -2.785933,2.416162 -3.227589,4.624443 -0.0922,0.460986 -0.271811,0.838158 -0.399142,0.838158 -0.127331,0 -0.233135,0.26789 -0.235122,0.595312 -0.0061,1.010121 -0.305305,1.785938 -0.688705,1.785938 -0.502165,0 -0.481843,-1.856452 0.03383,-3.090633 1.024248,-2.451373 1.537783,-5.407098 1.152399,-6.632805 -1.135114,-3.610196 -5.623574,6.236162 -6.165606,13.525522 l -0.135164,1.817706 1.514366,-1.414259 c 0.832901,-0.777843 1.573897,-1.477426 1.646657,-1.554631 2.984505,-3.166748 6.538632,-2.683798 6.024581,0.818642 -0.141703,0.965488 -0.113884,0.960419 1.066139,-0.194228 2.038477,-1.994641 2.698863,-2.090899 2.698863,-0.39338 0,1.340813 0.195075,1.456926 1.128361,0.671618 0.896276,-0.754168 1.255477,-0.726963 1.685266,0.127635 0.622192,1.237166 0.820714,1.197023 1.68901,-0.341516 1.019821,-1.807025 1.167818,-1.848487 0.92968,-0.260466 -0.449869,2.999938 -2.033193,4.25962 -2.754231,2.19125 -0.340256,-0.976061 -0.644339,-0.971844 -1.529154,0.02122 -1.099881,1.234427 -2.685568,0.09315 -1.818907,-1.309134 0.392216,-0.634622 -0.504124,-0.510278 -1.006144,0.139576 -2.413643,3.124414 -2.911642,3.130444 -2.999216,0.03631 -0.02972,-1.050202 -0.0615,-1.998755 -0.0706,-2.107895 -0.145926,-1.748584 -4.506631,1.293717 -8.470898,5.909826 -1.546477,1.800756 -3.228113,2.472367 -4.774829,1.906955 z m 2.510003,-1.663883 c 1.307887,-0.497255 2.242522,-1.803077 1.930726,-2.697498 -0.149652,-0.429289 -0.207142,-1.218666 -0.127756,-1.754167 0.07939,-0.5355 0.281072,-1.926137 0.448189,-3.090304 0.187076,-1.329124 0.359356,-2.730411 0.635084,-3.462327 0.106975,-0.278532 0.418261,-1.313638 0.691747,-2.300234 1.928992,-6.958814 5.444252,-9.357854 6.268583,-4.278088 0.170696,1.05187 0.341071,1.116867 1.004887,0.383357 0.685919,-0.757931 1.672484,-0.688044 1.987611,0.1408 0.246457,0.648233 0.280151,0.656816 1.038646,0.264584 1.144923,-0.592064 1.31509,-0.518107 1.502349,0.65295 0.09956,0.622625 0.31487,1.058333 0.522983,1.058333 0.448818,0 0.901536,0.833555 0.901536,1.659928 0,0.435019 0.226616,0.739635 0.716185,0.962699 0.393903,0.179474 0.876906,0.555773 1.073338,0.836221 0.595585,0.850315 0.756573,0.602895 1.117541,-1.717513 0.937845,-6.028737 -0.388019,-9.48355 -4.324527,-11.268446 -5.887794,-2.66965 -15.3071,0.62539 -18.411041,6.440513 -0.746052,1.397703 -1.373901,2.606553 -1.61125,3.102277 -3.098185,6.470809 0.0792,16.799095 4.635174,15.066915 z"
         id="path86032"
         sodipodi:nodetypes="sccsssssssssssscsssssssssssssssscssscsssscscsssssssssssscssssssccssssssssssssscss" /></g></g></svg>
